<svg id="visual" viewBox="0 0 900 600" width="900" height="600" xmlns="http://www.w3.org/2000/svg" xmlns:xlink="http://www.w3.org/1999/xlink" version="1.1"><path d="M289 0L281.7 14.3C274.3 28.7 259.7 57.3 252.3 85.8C245 114.3 245 142.7 266 171.2C287 199.7 329 228.3 346.7 257C364.3 285.7 357.7 314.3 343 343C328.3 371.7 305.7 400.3 292.8 428.8C280 457.3 277 485.7 277.8 514.2C278.7 542.7 283.3 571.3 285.7 585.7L288 600L0 600L0 585.7C0 571.3 0 542.7 0 514.2C0 485.7 0 457.3 0 428.8C0 400.3 0 371.7 0 343C0 314.3 0 285.7 0 257C0 228.3 0 199.7 0 171.2C0 142.7 0 114.3 0 85.8C0 57.3 0 28.7 0 14.3L0 0Z" fill="#fa7268"></path><path d="M212 0L210.7 14.3C209.3 28.7 206.7 57.3 203.7 85.8C200.7 114.3 197.3 142.7 206.8 171.2C216.3 199.7 238.7 228.3 255.3 257C272 285.7 283 314.3 284.7 343C286.3 371.7 278.7 400.3 261.8 428.8C245 457.3 219 485.7 217.5 514.2C216 542.7 239 571.3 250.5 585.7L262 600L0 600L0 585.7C0 571.3 0 542.7 0 514.2C0 485.7 0 457.3 0 428.8C0 400.3 0 371.7 0 343C0 314.3 0 285.7 0 257C0 228.3 0 199.7 0 171.2C0 142.7 0 114.3 0 85.8C0 57.3 0 28.7 0 14.3L0 0Z" fill="#ef5f67"></path><path d="M207 0L205.3 14.3C203.7 28.7 200.3 57.3 193.5 85.8C186.7 114.3 176.3 142.7 165.7 171.2C155 199.7 144 228.3 149.3 257C154.7 285.7 176.3 314.3 183.2 343C190 371.7 182 400.3 181 428.8C180 457.3 186 485.7 196.5 514.2C207 542.7 222 571.3 229.5 585.7L237 600L0 600L0 585.7C0 571.3 0 542.7 0 514.2C0 485.7 0 457.3 0 428.8C0 400.3 0 371.7 0 343C0 314.3 0 285.7 0 257C0 228.3 0 199.7 0 171.2C0 142.7 0 114.3 0 85.8C0 57.3 0 28.7 0 14.3L0 0Z" fill="#e34c67"></path><path d="M117 0L123.5 14.3C130 28.7 143 57.3 152 85.8C161 114.3 166 142.7 163.5 171.2C161 199.7 151 228.3 148 257C145 285.7 149 314.3 152.7 343C156.3 371.7 159.7 400.3 159.3 428.8C159 457.3 155 485.7 155.5 514.2C156 542.7 161 571.3 163.5 585.7L166 600L0 600L0 585.7C0 571.3 0 542.7 0 514.2C0 485.7 0 457.3 0 428.8C0 400.3 0 371.7 0 343C0 314.3 0 285.7 0 257C0 228.3 0 199.7 0 171.2C0 142.7 0 114.3 0 85.8C0 57.3 0 28.7 0 14.3L0 0Z" fill="#d53867"></path><path d="M100 0L98.5 14.3C97 28.7 94 57.3 93.5 85.8C93 114.3 95 142.7 94 171.2C93 199.7 89 228.3 82.8 257C76.7 285.7 68.3 314.3 61.2 343C54 371.7 48 400.3 53.3 428.8C58.7 457.3 75.3 485.7 78.3 514.2C81.3 542.7 70.7 571.3 65.3 585.7L60 600L0 600L0 585.7C0 571.3 0 542.7 0 514.2C0 485.7 0 457.3 0 428.8C0 400.3 0 371.7 0 343C0 314.3 0 285.7 0 257C0 228.3 0 199.7 0 171.2C0 142.7 0 114.3 0 85.8C0 57.3 0 28.7 0 14.3L0 0Z" fill="#c62368"></path></svg>