<svg id="visual" viewBox="0 0 900 600" width="900" height="600" xmlns="http://www.w3.org/2000/svg" xmlns:xlink="http://www.w3.org/1999/xlink" version="1.1"><path d="M635 600L620.8 585.7C606.7 571.3 578.3 542.7 582.2 514.2C586 485.7 622 457.3 637.3 428.8C652.7 400.3 647.3 371.7 648 343C648.7 314.3 655.3 285.7 640.5 257C625.7 228.3 589.3 199.7 583.3 171.2C577.3 142.7 601.7 114.3 611 85.8C620.3 57.3 614.7 28.7 611.8 14.3L609 0L900 0L900 14.3C900 28.7 900 57.3 900 85.8C900 114.3 900 142.7 900 171.2C900 199.7 900 228.3 900 257C900 285.7 900 314.3 900 343C900 371.7 900 400.3 900 428.8C900 457.3 900 485.7 900 514.2C900 542.7 900 571.3 900 585.7L900 600Z" fill="#fa7268"></path><path d="M672 600L661.3 585.7C650.7 571.3 629.3 542.7 632.2 514.2C635 485.7 662 457.3 672.8 428.8C683.7 400.3 678.3 371.7 671.2 343C664 314.3 655 285.7 648.5 257C642 228.3 638 199.7 639.7 171.2C641.3 142.7 648.7 114.3 655.7 85.8C662.7 57.3 669.3 28.7 672.7 14.3L676 0L900 0L900 14.3C900 28.7 900 57.3 900 85.8C900 114.3 900 142.7 900 171.2C900 199.7 900 228.3 900 257C900 285.7 900 314.3 900 343C900 371.7 900 400.3 900 428.8C900 457.3 900 485.7 900 514.2C900 542.7 900 571.3 900 585.7L900 600Z" fill="#f36567"></path><path d="M678 600L677.8 585.7C677.7 571.3 677.3 542.7 684.5 514.2C691.7 485.7 706.3 457.3 705.2 428.8C704 400.3 687 371.7 687.7 343C688.3 314.3 706.7 285.7 703.7 257C700.7 228.3 676.3 199.7 670.5 171.2C664.7 142.7 677.3 114.3 683.7 85.8C690 57.3 690 28.7 690 14.3L690 0L900 0L900 14.3C900 28.7 900 57.3 900 85.8C900 114.3 900 142.7 900 171.2C900 199.7 900 228.3 900 257C900 285.7 900 314.3 900 343C900 371.7 900 400.3 900 428.8C900 457.3 900 485.7 900 514.2C900 542.7 900 571.3 900 585.7L900 600Z" fill="#eb5967"></path><path d="M703 600L702.8 585.7C702.7 571.3 702.3 542.7 705 514.2C707.7 485.7 713.3 457.3 709.2 428.8C705 400.3 691 371.7 682.8 343C674.7 314.3 672.3 285.7 679.3 257C686.3 228.3 702.7 199.7 709.2 171.2C715.7 142.7 712.3 114.3 712.8 85.8C713.3 57.3 717.7 28.7 719.8 14.3L722 0L900 0L900 14.3C900 28.7 900 57.3 900 85.8C900 114.3 900 142.7 900 171.2C900 199.7 900 228.3 900 257C900 285.7 900 314.3 900 343C900 371.7 900 400.3 900 428.8C900 457.3 900 485.7 900 514.2C900 542.7 900 571.3 900 585.7L900 600Z" fill="#e34c67"></path><path d="M723 600L727.2 585.7C731.3 571.3 739.7 542.7 741 514.2C742.3 485.7 736.7 457.3 734.2 428.8C731.7 400.3 732.3 371.7 734.7 343C737 314.3 741 285.7 749.3 257C757.7 228.3 770.3 199.7 771.5 171.2C772.7 142.7 762.3 114.3 763.8 85.8C765.3 57.3 778.7 28.7 785.3 14.3L792 0L900 0L900 14.3C900 28.7 900 57.3 900 85.8C900 114.3 900 142.7 900 171.2C900 199.7 900 228.3 900 257C900 285.7 900 314.3 900 343C900 371.7 900 400.3 900 428.8C900 457.3 900 485.7 900 514.2C900 542.7 900 571.3 900 585.7L900 600Z" fill="#da3f67"></path><path d="M786 600L786 585.7C786 571.3 786 542.7 784 514.2C782 485.7 778 457.3 780.7 428.8C783.3 400.3 792.7 371.7 799.2 343C805.7 314.3 809.3 285.7 804.7 257C800 228.3 787 199.7 782.2 171.2C777.3 142.7 780.7 114.3 790 85.8C799.3 57.3 814.7 28.7 822.3 14.3L830 0L900 0L900 14.3C900 28.7 900 57.3 900 85.8C900 114.3 900 142.7 900 171.2C900 199.7 900 228.3 900 257C900 285.7 900 314.3 900 343C900 371.7 900 400.3 900 428.8C900 457.3 900 485.7 900 514.2C900 542.7 900 571.3 900 585.7L900 600Z" fill="#d03267"></path><path d="M837 600L838.3 585.7C839.7 571.3 842.3 542.7 841.2 514.2C840 485.7 835 457.3 835.8 428.8C836.7 400.3 843.3 371.7 847.5 343C851.7 314.3 853.3 285.7 856.7 257C860 228.3 865 199.7 867.8 171.2C870.7 142.7 871.3 114.3 865.5 85.8C859.7 57.3 847.3 28.7 841.2 14.3L835 0L900 0L900 14.3C900 28.7 900 57.3 900 85.8C900 114.3 900 142.7 900 171.2C900 199.7 900 228.3 900 257C900 285.7 900 314.3 900 343C900 371.7 900 400.3 900 428.8C900 457.3 900 485.7 900 514.2C900 542.7 900 571.3 900 585.7L900 600Z" fill="#c62368"></path></svg>